<?xml version="1.0" encoding="utf-8"?>
<!-- Generator: Adobe Illustrator 16.0.0, SVG Export Plug-In . SVG Version: 6.00 Build 0)  -->
<!DOCTYPE svg PUBLIC "-//W3C//DTD SVG 1.1//EN" "http://www.w3.org/Graphics/SVG/1.1/DTD/svg11.dtd">
<svg version="1.1" id="Layer_1" xmlns="http://www.w3.org/2000/svg" xmlns:xlink="http://www.w3.org/1999/xlink" x="0px" y="0px"
	 width="1190.55px" height="841.89px" viewBox="0 0 1190.55 841.89" enable-background="new 0 0 1190.55 841.89"
	 xml:space="preserve">
<g>
	<path fill-rule="evenodd" clip-rule="evenodd" d="M589.773,343.584c4.334,0,8.666,0,13,0c0.764,0.279,1.509,0.723,2.295,0.813
		c21.822,2.532,39.094,12.922,52.447,30.184c7.363,9.52,11.262,20.554,14.258,32.003c0,9,0,18,0,27
		c-0.341,1.096-0.738,2.178-1.014,3.289c-9.445,38.066-42.49,64.895-87.228,58.197c-29.837-4.467-49.883-22.893-59.761-51.641
		c-1.866-5.432-2.691-11.221-3.998-16.846c0-4.332,0-8.667,0-13c0.297-0.93,0.734-1.839,0.869-2.791
		c4.135-28.934,19.67-49.396,46.343-60.994C574.131,346.693,582.153,345.601,589.773,343.584z M559.735,471.402
		c2.632,1.959,7.001,1.34,7.251,6.396c0.097,1.957,1.484,4.834,3.075,5.559c5.527,2.521,9.836-0.041,11.111-5.908
		c1.121-5.156,6.023-7.07,10.214-3.828c2.484,1.922,4.737,3.24,7.274,0.236c2.464-2.92,6.411-5.146,2.999-10.094
		c-3.988-5.779-2.149-10.342,4.721-12.098c4.137-1.059,4.398-3.918,4.307-7.26c-0.086-3.154,0.364-6.404-3.861-7.6
		c-7.539-2.129-9.075-5.867-5.033-12.629c3.088-5.165-1.487-7.106-3.803-9.968c-2.204-2.725-4.287-1.203-6.422,0.41
		c-4.978,3.763-9.844,1.82-10.83-4.374c-0.614-3.853-2.224-5.709-6.525-5.752c-4.828-0.048-7.374,1.172-7.93,6.442
		c-0.538,5.101-6.157,7.349-10.143,4.482c-2.571-1.851-4.916-3.601-7.725-0.3c-2.617,3.074-6.46,5.354-2.623,10.417
		c3.901,5.15,1.703,10.186-4.613,11.451c-3.859,0.771-4.706,3.084-4.43,6.492c0.28,3.443-1.226,7.449,4.271,8.594
		c6.77,1.41,8.719,6.021,4.993,11.762c-3.169,4.881,0.409,7.256,3.013,10.172c2.574,2.885,4.895,1.826,7.285-0.295
		C557.283,472.85,558.475,472.24,559.735,471.402z M607.838,368.313c0.019,3.89-3.114,6.951-6.361,6.02
		c-3.415-0.98-5.338-0.312-6.513,3.104c-1.118,3.253-2.412,6.089,1.534,8.666c4.125,2.695,4.186,7.339,0.115,9.983
		c-4.035,2.62-2.455,5.439-1.399,8.648c1.173,3.563,3.376,3.843,6.62,3.109c3.754-0.85,7.322,2.618,6.338,6.303
		c-1.166,4.368,0.502,6.259,4.357,7.927c3.979,1.721,5.309-0.393,7.028-3.139c2.063-3.291,6.392-3.279,8.382,0.057
		c1.746,2.931,3.328,4.639,7.092,2.798c3.341-1.635,5.618-3.014,4.348-7.441c-1.245-4.336,2.162-7.721,6.5-6.861
		c2.563,0.508,4.715,0.546,5.636-2.391c0.897-2.863,3.239-5.677-0.061-8.652c-5.21-4.7-5.212-6.998,0.058-11.558
		c3.49-3.02,1.061-5.968-0.211-8.507c-0.666-1.33-3.326-2.545-4.922-2.363c-5.419,0.614-8.513-1.832-7.277-7.188
		c1.076-4.665-1.682-5.695-4.83-7.208c-3.325-1.599-4.784,0.092-6.359,2.598c-2.266,3.604-7.064,3.808-9.079,0.21
		c-2.036-3.637-4.203-3.573-7.749-2.204C606.379,362.04,607.008,365.181,607.838,368.313z"/>
	<path fill-rule="evenodd" clip-rule="evenodd" d="M570.402,455.764c-0.803-0.643-1.366-0.996-1.807-1.463
		c-2.613-2.773-5.199-5.572-8.162-8.76c1.49-1.617,2.869-3.115,4.816-5.227c1.526,2.174,2.762,3.936,4.344,6.189
		c4.58-4.803,8.527-8.941,13.205-13.848c1.376,1.672,2.602,3.158,4.231,5.137C581.424,443.854,575.957,449.762,570.402,455.764z"/>
	<path fill-rule="evenodd" clip-rule="evenodd" d="M634.424,390.343c0.129,6.085-4.821,11.482-10.53,11.483
		c-5.491,0.001-10.63-5.191-10.771-10.883c-0.146-5.93,4.959-11.424,10.631-11.44C629.375,379.486,634.299,384.489,634.424,390.343z
		"/>
	
		<ellipse fill-rule="evenodd" clip-rule="evenodd" fill="none" stroke="#000000" stroke-width="3" stroke-miterlimit="10" cx="595.773" cy="419.84" rx="76" ry="76.257"/>
</g>
</svg>
