<svg id="Layer_1" enable-background="new 0 0 512 512" height="512" viewBox="0 0 512 512" width="512" xmlns="http://www.w3.org/2000/svg"><g><path d="m256 122.547c-73.586 0-133.453 59.867-133.453 133.453s59.867 133.453 133.453 133.453 133.453-59.867 133.453-133.453-59.867-133.453-133.453-133.453zm-54.587 221.293v-12.085c2.457-28.083 26.354-50.004 54.644-50.004 28.183 0 51.507 20.95 54.53 48.843v13.245c-15.855 9.889-34.564 15.613-54.587 15.613s-38.732-5.723-54.587-15.612zm34.263-112.468c0-11.238 9.143-20.381 20.38-20.381 11.238 0 20.381 9.143 20.381 20.381s-9.143 20.381-20.381 20.381c-11.237-.001-20.38-9.144-20.38-20.381zm103.149 86.55c-3.786-16.833-12.632-32.177-25.554-43.98-5.231-4.778-10.99-8.821-17.119-12.112 6.447-8.466 10.285-19.021 10.285-30.459 0-27.78-22.601-50.381-50.381-50.381s-50.38 22.601-50.38 50.381c0 11.438 3.838 21.992 10.284 30.458-6.344 3.407-12.291 7.621-17.671 12.623-12.672 11.782-21.326 26.948-25.038 43.569-12.994-17.293-20.704-38.773-20.704-62.021 0-57.044 46.409-103.453 103.453-103.453s103.453 46.409 103.453 103.453c0 23.203-7.679 44.646-20.628 61.922z"/><path d="m497 202.091h-30.723c-5.086-19.955-12.948-38.929-23.475-56.655l21.729-21.73c5.858-5.858 5.858-15.355 0-21.213l-55.025-55.025c-2.813-2.813-6.628-4.394-10.606-4.394-3.979 0-7.793 1.58-10.606 4.394l-21.73 21.73c-17.726-10.526-36.699-18.388-56.655-23.474v-30.724c0-8.284-6.716-15-15-15h-77.817c-8.284 0-15 6.716-15 15v30.723c-19.956 5.086-38.929 12.948-56.655 23.474l-21.73-21.73c-2.813-2.813-6.628-4.394-10.606-4.394s-7.793 1.58-10.606 4.394l-55.025 55.025c-5.858 5.858-5.858 15.355 0 21.213l21.729 21.73c-10.526 17.726-18.388 36.7-23.475 56.655h-30.724c-8.284 0-15 6.716-15 15v77.817c0 8.284 6.716 15 15 15h30.723c5.086 19.955 12.948 38.929 23.475 56.655l-21.729 21.73c-5.858 5.858-5.858 15.355 0 21.213l55.025 55.025c2.813 2.813 6.628 4.394 10.606 4.394 3.979 0 7.793-1.58 10.606-4.394l21.73-21.73c17.726 10.526 36.699 18.388 56.655 23.474v30.726c0 8.284 6.716 15 15 15h77.817c8.284 0 15-6.716 15-15v-30.723c19.956-5.086 38.929-12.948 56.655-23.474l21.73 21.73c2.813 2.813 6.628 4.394 10.606 4.394s7.793-1.58 10.606-4.394l55.025-55.025c5.858-5.858 5.858-15.355 0-21.213l-21.729-21.73c10.526-17.726 18.388-36.7 23.475-56.655h30.724c8.284 0 15-6.716 15-15v-77.817c0-8.286-6.716-15.002-15-15.002zm-15 77.818h-27.72c-7.177 0-13.348 5.083-14.722 12.127-4.787 24.533-14.304 47.504-28.288 68.275-4.007 5.953-3.238 13.909 1.836 18.983l19.605 19.606-33.811 33.812-19.606-19.606c-5.074-5.074-13.031-5.844-18.983-1.836-20.77 13.983-43.741 23.5-68.274 28.287-7.044 1.375-12.127 7.546-12.127 14.722v27.721h-47.817v-27.72c0-7.177-5.083-13.348-12.127-14.722-24.534-4.787-47.504-14.304-68.274-28.287-5.953-4.007-13.91-3.238-18.983 1.836l-19.609 19.605-33.812-33.812 19.605-19.606c5.074-5.074 5.844-13.031 1.836-18.983-13.983-20.771-23.501-43.742-28.288-68.275-1.374-7.044-7.545-12.127-14.722-12.127h-27.719v-47.817h27.72c7.177 0 13.348-5.083 14.722-12.127 4.787-24.533 14.304-47.504 28.288-68.275 4.007-5.952 3.238-13.909-1.836-18.983l-19.606-19.607 33.812-33.812 19.606 19.606c5.073 5.074 13.031 5.844 18.983 1.836 20.77-13.983 43.741-23.5 68.274-28.287 7.044-1.375 12.127-7.546 12.127-14.722v-27.721h47.817v27.72c0 7.177 5.083 13.348 12.127 14.722 24.534 4.787 47.504 14.304 68.274 28.287 5.953 4.008 13.91 3.238 18.983-1.836l19.609-19.605 33.812 33.812-19.605 19.606c-5.074 5.074-5.844 13.031-1.836 18.983 13.983 20.771 23.5 43.742 28.288 68.275 1.374 7.044 7.545 12.127 14.722 12.127h27.719z"/></g></svg>