<svg id="Capa_1" enable-background="new 0 0 512.231 512.231" height="512" viewBox="0 0 512.231 512.231" width="512" xmlns="http://www.w3.org/2000/svg"><g id="XMLID_207_"><path id="XMLID_364_" d="m359.864 453.438c-4.768 4.768-9.726 9.274-14.845 13.534l45.26 45.26 21.213-21.213-44.768-44.769c-2.228 2.438-4.51 4.837-6.86 7.188z"/><path id="XMLID_367_" d="m47.981 446.329-44.69 44.69 21.213 21.213 45.191-45.191c-5.148-4.28-10.134-8.81-14.927-13.603-2.325-2.325-4.583-4.699-6.787-7.109z"/><path id="XMLID_368_" d="m348.685 300.889c0 77.951-63.418 141.369-141.369 141.369s-141.369-63.418-141.369-141.369 63.418-141.369 141.369-141.369c33.773 0 64.813 11.91 89.154 31.743l31.488-31.485c-32.48-27.81-74.64-44.63-120.64-44.63-102.42 0-185.74 83.33-185.74 185.74 0 102.42 83.32 185.74 185.74 185.74 102.41 0 185.73-83.32 185.73-185.74 0-45.63-16.54-87.47-43.94-119.84l-31.506 31.506c19.435 24.217 31.083 54.939 31.083 88.335z"/><path id="XMLID_374_" d="m197.447 290.278 23.239-23.238c-4.143-1.642-8.651-2.555-13.371-2.555-20.073 0-36.403 16.33-36.403 36.403s16.331 36.403 36.403 36.403 36.403-16.33 36.403-36.403c0-4.318-.76-8.46-2.146-12.307l-22.916 22.916z"/><path id="XMLID_375_" d="m95.947 300.889c0 61.409 49.96 111.369 111.369 111.369s111.369-49.96 111.369-111.369c0-25.119-8.363-48.32-22.446-66.972l-32.311 32.311c6.204 10.097 9.791 21.967 9.791 34.662 0 36.615-29.788 66.403-66.403 66.403s-66.403-29.788-66.403-66.403 29.789-66.403 66.403-66.403c13.076 0 25.271 3.815 35.56 10.367l32.248-32.246c-18.793-14.469-42.311-23.087-67.808-23.087-61.409-.001-111.369 49.958-111.369 111.368z"/><path id="XMLID_384_" d="m451.264 57.677-12.451-57.677-76.461 76.462v48.917l-34.394 34.399c7.61 6.51 14.68 13.63 21.15 21.27l34.459-34.459h48.913l76.461-76.462z"/></g></svg>