<?xml version="1.0" encoding="utf-8"?>
<!-- Generator: Adobe Illustrator 16.0.0, SVG Export Plug-In . SVG Version: 6.00 Build 0)  -->
<!DOCTYPE svg PUBLIC "-//W3C//DTD SVG 1.1//EN" "http://www.w3.org/Graphics/SVG/1.1/DTD/svg11.dtd">
<svg version="1.1" id="Layer_1" xmlns="http://www.w3.org/2000/svg" xmlns:xlink="http://www.w3.org/1999/xlink" x="0px" y="0px"
	 width="1190.55px" height="841.89px" viewBox="0 0 1190.55 841.89" enable-background="new 0 0 1190.55 841.89"
	 xml:space="preserve">
<path fill-rule="evenodd" clip-rule="evenodd" stroke="#000000" stroke-miterlimit="10" d="M603.275,512.555c-5.334,0-10.666,0-16,0
	c-3.752-0.615-7.508-1.201-11.252-1.852c-47.578-8.27-80.185-35.131-97.604-79.926c-4.098-10.537-5.502-22.121-8.145-33.223
	c0-7,0-14,0-21c0.311-1.111,0.782-2.204,0.91-3.335c1.672-14.862,5.94-28.966,12.787-42.222
	c14.988-29.024,37.604-49.664,68.568-60.448c9.965-3.47,20.475-5.374,30.734-7.995c8,0,16,0,24,0
	c2.705,0.623,5.385,1.412,8.121,1.845c49.043,7.749,89.117,44.496,100.879,92.682c1.57,6.434,2.678,12.979,4,19.474c0,7,0,14,0,21
	c-0.781,4.738-1.439,9.5-2.363,14.211c-9.586,48.838-47.83,87.627-96.508,97.809C615.414,510.827,609.32,511.573,603.275,512.555z
	 M646.439,422.561c13.465,8.865,25.428,7.088,32.352-4.623c6.943-11.746,1.777-24.289-13.844-32.78c0-10.185,0-20.615,0-31.101
	c-2.682,0-4.914,0-7.311,0c0,9.298,0.096,18.244-0.082,27.186c-0.035,1.718-1.139,3.415-1.75,5.121
	c-1.295-1.082-2.922-1.94-3.828-3.284c-3.908-5.797-7.498-11.811-11.436-17.588c-1.643-2.41-2.057-4.269-0.707-7.153
	c2.559-5.468,0.664-11.829-3.803-15.313c-4.342-3.387-9.352-3.081-14.793,0.263c-1.486,0.913-4.08,1.108-5.738,0.49
	c-17.307-6.449-34.508-13.179-51.785-19.702c-2.854-1.077-4.613-2.386-5.348-5.678c-1.168-5.235-5.832-8.866-10.607-9.234
	c-4.506-0.348-9.619,2.861-11.586,7.271c-3.039,6.812,0.014,14.506,6.83,17.578c1.352,0.608,3.197,1.617,3.508,2.787
	c1.818,6.874,3.248,13.851,4.809,20.796c-0.99,0.553-1.523,0.976-2.131,1.171c-25.398,8.186-29.434,42.08-11.217,57.212
	c3.539,2.939,1.297,3.928-2.178,4.803c3.129,2.545,5.633,4.582,7.381,6.002c2.432-1.795,4.656-4.625,6.035-4.26
	c8.861,2.344,17.109,1.428,25.254-3.459c4.691,6.375,9.293,12.457,13.639,18.715c0.682,0.982,0.471,2.814,0.225,4.172
	c-1.482,8.201,3.277,15.578,10.65,16.32c6.98,0.703,12.438-4.971,13.143-13.293c0.129-1.516,1.088-3.574,2.305-4.285
	C625.051,434.489,635.82,428.532,646.439,422.561z M560.994,446.569c-4.518,2.473-8.258,4.52-12.375,6.773
	c-0.383-2.492-0.67-4.367-1.059-6.896c-4.264,2.426-8.078,4.596-12.324,7.01c-0.4-2.572-0.715-4.588-1.088-6.994
	c-4.24,2.271-8.096,4.336-12.855,6.887c0-8.316-0.129-15.59,0.055-22.854c0.086-3.361-0.867-4.705-4.479-4.734
	c-3.846-0.031-4.314,1.766-4.285,4.908c0.111,12.326,0.029,24.654,0.066,36.98c0.004,1.252,0.311,2.504,0.473,3.719
	c16.15,0,31.885,0,47.871,0C560.994,463.102,560.994,455.209,560.994,446.569z M655.061,339.428
	c0.418,0.543,0.836,1.086,1.254,1.629c-1.141,1.043-2.258,2.112-3.43,3.12c-1.131,0.974-2.32,1.884-3.482,2.821
	c1.41,0.772,2.783,2.115,4.238,2.211c4.477,0.295,8.99,0.247,13.477,0.037c1.385-0.065,2.723-1.08,4.082-1.66
	c-1.08-1.139-2.174-2.265-3.236-3.419c-1.08-1.171-2.129-2.369-3.191-3.556c4.432-1.179,7.746-1.245,11.055-1.161
	c3.568,0.092,5.246-1.659,5.258-5.116c0.027-7.16-0.006-14.32,0.023-21.48c0.014-3.472-1.506-5.214-5.125-5.189
	c-10.158,0.067-20.316,0.1-30.473-0.02c-3.691-0.043-5.076,1.602-5.035,5.122c0.084,7.159,0.105,14.321-0.004,21.48
	c-0.055,3.665,1.785,5.138,5.17,5.174C648.781,339.454,651.92,339.428,655.061,339.428z"/>
<path fill-rule="evenodd" clip-rule="evenodd" d="M641.246,400.358c-16.029-2.721-31.918-5.348-47.762-8.236
	c-1.436-0.262-3.662-2.256-3.623-3.379c0.113-3.252-3.547-7.057,1.229-9.829c8.764-5.087,17.4-10.397,26.182-15.455
	c1.041-0.601,2.723-0.504,3.992-0.215c2.982,0.681,5.939,1.553,8.818,2.594c1.246,0.451,2.641,1.269,3.342,2.331
	c4.303,6.518,8.557,13.076,12.49,19.817c0.725,1.241,0.344,3.561-0.291,5.059C644.607,395.45,642.953,397.584,641.246,400.358z"/>
<path fill-rule="evenodd" clip-rule="evenodd" d="M642.504,415.77c-11.232,6.377-22.178,12.643-33.209,18.754
	c-0.889,0.492-2.387,0.029-3.566-0.186c-2.4-0.439-4.984-1.861-7.115-1.338c-3.484,0.854-5.16-0.383-6.945-2.971
	c-3.578-5.191-7.404-10.213-10.889-14.977c2.51-4.752,4.699-9.189,7.219-13.43c0.545-0.918,2.379-1.742,3.453-1.572
	c15.275,2.438,30.496,5.221,45.789,7.537C642.617,408.403,640.705,412.723,642.504,415.77z"/>
<path fill-rule="evenodd" clip-rule="evenodd" d="M585.572,373.666c-6.004-9.263-13.908-14.804-24.523-16.24
	c-0.916-0.124-2.117-1.598-2.365-2.641c-1.592-6.642-3.15-13.304-4.309-20.03c-0.574-3.339,1.383-5.31,4.779-4.01
	c18.816,7.202,37.57,14.566,56.33,21.91c0.551,0.216,0.951,0.817,2.143,1.886C606.861,360.964,596.5,367.146,585.572,373.666z"/>
<path fill-rule="evenodd" clip-rule="evenodd" d="M660.795,420.788c-6.947-0.102-12.617-6.195-12.551-13.49
	c0.07-7.686,6.246-13.893,13.594-13.664c6.801,0.211,12.547,6.652,12.309,13.793C673.895,414.924,667.93,420.893,660.795,420.788z"
	/>
<path fill-rule="evenodd" clip-rule="evenodd" d="M644.834,312.662c10.625,0,20.875,0,31.719,0c0,6.503,0.133,12.769-0.133,19.018
	c-0.045,1.027-1.824,2.814-2.836,2.838c-9.445,0.219-18.898,0.13-28.75,0.13C644.834,327.175,644.834,320.142,644.834,312.662z"/>
<ellipse fill-rule="evenodd" clip-rule="evenodd" fill="none" stroke="#000000" stroke-width="3" stroke-miterlimit="10" cx="595.275" cy="387.591" rx="125" ry="125.037"/>
<ellipse fill-rule="evenodd" clip-rule="evenodd" cx="547.141" cy="321.674" rx="6.102" ry="5.648"/>
<ellipse fill-rule="evenodd" clip-rule="evenodd" cx="629.424" cy="352.004" rx="6.102" ry="5.648"/>
<ellipse fill-rule="evenodd" clip-rule="evenodd" cx="600.655" cy="445.294" rx="6.102" ry="5.648"/>
<path fill-rule="evenodd" clip-rule="evenodd" d="M534.376,390.867c0.031-14.104,10.711-25.293,24.124-25.275
	c12.897,0.017,23.997,11.921,23.957,25.693c-0.042,14.041-10.811,25.146-24.312,25.071
	C544.756,416.282,534.344,405.116,534.376,390.867z M557.829,373.933c-6.811,0.115-12.957,2.164-18.01,7.062
	c-1.313,1.271-2.227,2.422-0.529,4.152c1.535,1.564,2.506,0.604,3.787-0.343c10.705-7.919,18.553-7.941,29.479-0.044
	c1.487,1.074,2.6,1.98,4.154,0.128c1.692-2.015,0.061-2.969-1.097-4.075C570.671,376.09,564.665,374.077,557.829,373.933z
	 M558.073,381.714c-4.993,0.1-9.411,1.637-13.087,5.134c-1.169,1.111-2.11,2.031-0.601,3.666c1.311,1.42,2.316,1.363,3.758,0.203
	c6.602-5.317,13.291-5.249,19.882,0.019c1.286,1.028,2.13,1.124,3.308-0.134c1.329-1.418,1.191-2.396-0.192-3.696
	C567.445,383.437,563.087,381.801,558.073,381.714z M557.903,389.336c-2.896,0.193-5.569,0.893-7.746,2.906
	c-1.029,0.952-1.873,1.957-0.645,3.357c0.93,1.06,1.953,1.926,3.388,0.929c3.369-2.34,6.692-2.544,10.07-0.021
	c1.664,1.243,2.742,0.161,3.705-1.086c1.207-1.563-0.059-2.374-1.041-3.242C563.421,390.224,560.737,389.548,557.903,389.336z
	 M563.263,401.949c-0.4-2.993-1.878-5.048-5.076-5.004c-2.984,0.041-4.513,2.013-4.568,4.849c-0.055,2.858,1.488,4.855,4.41,5.026
	C561.225,407.007,562.758,404.949,563.263,401.949z"/>
<path fill-rule="evenodd" clip-rule="evenodd" fill="none" d="M557.829,373.933c6.836,0.145,12.842,2.157,17.784,6.88
	c1.157,1.106,2.789,2.061,1.097,4.075c-1.555,1.853-2.667,0.946-4.154-0.128c-10.926-7.897-18.773-7.875-29.479,0.044
	c-1.281,0.946-2.252,1.907-3.787,0.343c-1.697-1.73-0.783-2.881,0.529-4.152C544.872,376.097,551.019,374.048,557.829,373.933z"/>
<path fill-rule="evenodd" clip-rule="evenodd" fill="none" d="M558.075,381.719c5.012,0.082,9.37,1.718,13.065,5.187
	c1.384,1.3,1.521,2.278,0.192,3.696c-1.178,1.258-2.021,1.162-3.308,0.134c-6.591-5.268-13.28-5.336-19.882-0.019
	c-1.441,1.16-2.447,1.217-3.758-0.203c-1.51-1.635-0.568-2.555,0.601-3.666C548.662,383.351,553.08,381.813,558.075,381.719z"/>
<path fill-rule="evenodd" clip-rule="evenodd" fill="none" d="M557.903,389.336c2.834,0.212,5.518,0.888,7.731,2.844
	c0.982,0.868,2.248,1.679,1.041,3.242c-0.963,1.247-2.041,2.329-3.705,1.086c-3.378-2.523-6.701-2.319-10.07,0.021
	c-1.435,0.997-2.458,0.131-3.388-0.929c-1.229-1.4-0.385-2.405,0.645-3.357C552.334,390.229,555.008,389.529,557.903,389.336z"/>
<path fill-rule="evenodd" clip-rule="evenodd" fill="none" d="M563.263,401.949c-0.505,3-2.038,5.058-5.234,4.871
	c-2.922-0.171-4.465-2.168-4.41-5.026c0.056-2.836,1.584-4.808,4.568-4.849C561.385,396.901,562.862,398.956,563.263,401.949z"/>
</svg>
